<svg width="29" height="28" viewBox="0 0 29 28" fill="none" xmlns="http://www.w3.org/2000/svg">
<g clip-path="url(#clip0_5_549)" filter="url(#filter0_d_5_549)">
<rect width="21" height="20" transform="translate(4)" fill="white"/>
<path d="M5 1V2.5M5 2.5L7.77 1.807C9.8544 1.28605 12.0564 1.52795 13.978 2.489L14.086 2.543C15.9688 3.4843 18.1219 3.73589 20.171 3.254L23.281 2.522C22.9029 6.01155 22.9046 9.53181 23.286 13.021L20.172 13.753C18.1227 14.2354 15.9692 13.9842 14.086 13.043L13.978 12.989C12.0564 12.028 9.8544 11.786 7.77 12.307L5 13M5 2.5V13M5 19V13" stroke="#12132D" stroke-opacity="0.6" stroke-width="1.5" stroke-linecap="round" stroke-linejoin="round"/>
</g>
<defs>
<filter id="filter0_d_5_549" x="0" y="0" width="29" height="28" filterUnits="userSpaceOnUse" color-interpolation-filters="sRGB">
<feFlood flood-opacity="0" result="BackgroundImageFix"/>
<feColorMatrix in="SourceAlpha" type="matrix" values="0 0 0 0 0 0 0 0 0 0 0 0 0 0 0 0 0 0 127 0" result="hardAlpha"/>
<feOffset dy="4"/>
<feGaussianBlur stdDeviation="2"/>
<feComposite in2="hardAlpha" operator="out"/>
<feColorMatrix type="matrix" values="0 0 0 0 0 0 0 0 0 0 0 0 0 0 0 0 0 0 0.25 0"/>
<feBlend mode="normal" in2="BackgroundImageFix" result="effect1_dropShadow_5_549"/>
<feBlend mode="normal" in="SourceGraphic" in2="effect1_dropShadow_5_549" result="shape"/>
</filter>
<clipPath id="clip0_5_549">
<rect width="21" height="20" fill="white" transform="translate(4)"/>
</clipPath>
</defs>
</svg>
